<svg xmlns="http://www.w3.org/2000/svg" width="800" height="450" viewBox="0 0 800 450">
  <rect width="800" height="450" fill="#f8f9fa" />
  <rect x="100" y="75" width="600" height="300" rx="10" fill="#ffffff" stroke="#e9ecef" stroke-width="2" />
  
  <!-- Presentation Header -->
  <rect x="100" y="75" width="600" height="60" rx="10" fill="#4dabf7" />
  <text x="130" y="115" font-family="Arial" font-size="20" fill="white">Movo Presentation Tool</text>
  
  <!-- Slide Preview -->
  <rect x="120" y="150" width="200" height="120" rx="5" fill="#e9ecef" stroke="#dee2e6" stroke-width="1" />
  <rect x="140" y="170" width="160" height="20" rx="2" fill="#adb5bd" />
  <rect x="140" y="200" width="120" height="10" rx="2" fill="#adb5bd" />
  <rect x="140" y="220" width="140" height="10" rx="2" fill="#adb5bd" />
  <rect x="140" y="240" width="100" height="10" rx="2" fill="#adb5bd" />
  
  <!-- Main Slide -->
  <rect x="340" y="150" width="340" height="200" rx="5" fill="#ffffff" stroke="#dee2e6" stroke-width="1" />
  <text x="400" y="190" font-family="Arial" font-size="24" font-weight="bold" fill="#212529">Team Presentation</text>
  <rect x="400" y="210" width="220" height="2" fill="#4dabf7" />
  
  <rect x="380" y="230" width="260" height="15" rx="2" fill="#e9ecef" />
  <rect x="380" y="255" width="220" height="15" rx="2" fill="#e9ecef" />
  <rect x="380" y="280" width="240" height="15" rx="2" fill="#e9ecef" />
  
  <!-- Thumbnails -->
  <rect x="120" y="290" width="50" height="40" rx="3" fill="#e9ecef" stroke="#dee2e6" stroke-width="1" />
  <rect x="180" y="290" width="50" height="40" rx="3" fill="#4dabf7" stroke="#dee2e6" stroke-width="1" />
  <rect x="240" y="290" width="50" height="40" rx="3" fill="#e9ecef" stroke="#dee2e6" stroke-width="1" />
  
  <!-- Controls -->
  <circle cx="510" cy="370" r="15" fill="#4dabf7" />
  <text x="505" y="375" font-family="Arial" font-size="14" fill="white">▶</text>
  
  <!-- MERN Stack Label -->
  <rect x="340" y="370" width="150" height="25" rx="12.5" fill="#f1f3f5" />
  <text x="365" y="387" font-family="Arial" font-size="12" fill="#495057">MERN Stack</text>
</svg>